<svg enable-background="new 0 0 1166.2 1470" viewBox="0 0 1166.2 1470" xmlns="http://www.w3.org/2000/svg"><g clip-rule="evenodd" fill-rule="evenodd"><path d="m405.4 1072.3v-120.2s-54.7-34.5-123.1-32.4-154.1 28.2-200.2 130.3-24.5 204.2 14.4 261.1c38.9 57 93.4 100.7 207.4 97.2 57.7-1.8 94.4-25.9 102.2-31-.8-17.9 0-131 0-131s-40.3 54.6-108.7 61.2c-10.9.8-69.2 4.2-113-50.4-35.3-48.9-38.7-131.6-2.2-181.2 49.2-57.8 139.7-71.2 223.2-3.6z" fill="#f7941f"/><path d="m447.8 932.9s10.2 110.6 10.3 233.3c.2 121.9-9.7 242.2-9.7 242.2h136.7s-15.4-113.3-19.9-204.7c-4-81.4-.2-114.2-.2-114.2s73.4-86.3 121-34.6c.8-87.2.7-116.6.7-116.6s-61.6-38-121.4 33.8c-.1-29.6 0-39.1 0-39.1h-117.5z" fill="#f7941f"/><path d="m903.1 918.2c-53.7-1.9-191.9 14.3-192 252.2 9.5 230.2 148.9 237.1 196.8 237.1 52.7 0 174.7-24 184.3-242.9 2.6-257.2-189.1-246.4-189.1-246.4zm-.3 404.6c-97.8 0-95.6-155.1-95.6-155.1s-8.8-167.9 93.4-164.8c102.3 3.2 95.6 165.9 95.6 165.9s4.4 154-93.4 154z" fill="#f7941f"/><g fill="#fff"><path d="m561.1 166.6c-16.4-12.2-35-19.5-71.5-22.6-8.1-.3-31.1 1.5-38.6-17.3-7.4-18.4-24-32.2-24-32.2s-26.2-31-80.6-29.8c-29.1.7-64.3 5.9-97.4 30.7-39 29.2-45.2 41.1-60.5 61.2-15.4 24.1-27.1 54.5-27.1 54.5s24.8-38.1 61.9-70.6c21.1-15.9 71.1-55.2 121.4-53.8 29.2-1.9 78.3 21.1 88.8 53.3 4.2 13.4 18.3 19.6 34.6 18.7 88.9-4.7 124.3 59.8 124.3 59.8s.1-24-31.3-51.9z"/><path d="m398.4 146.4s-14.8-2.4-23-16.8c-6.8-12-15.3-10.5-24.5-4.8-14.5 9.1-22 18.7-26.9 25 20.1-15 31.6-22.8 40.8-10.6 7.2 15.7 33.6 7.2 33.6 7.2z"/><path d="m470.4 220.3c-19.2 7.9-24.2 35.8-24.2 35.8 27.5-43.4 76.6-43.5 130.1-42.2-.1-.1-57.6-16.3-105.9 6.4z"/><path d="m154.1 230.2s-15.2 15.5-30.2 44.4c-6.2 11.9-13.8 29.9-17.3 43.4-9.9 46.3 39.8-8.1 24.7 30-5.4 13.3-11.4 29.8-13.7 44.6-5 31.9 2.9 60.2 2.9 60.2s-.8-31.8 6-60.2c7.5-31.5 18.1-57.7 20.6-67.2 3-12.2-10.7-4.6-17.3-1.7-3.2 2-27.2 8.4 24.3-93.5z"/><path d="m129.6 481s-15.1 65.6 56.9 138.2c48.8 38.7 59.1 31.1 101.5 106.6-22.4-82.9-46.7-66.9-96.5-123.1-45.4-51.3-60.5-92.2-61.9-121.7z"/><path d="m327.6 378.7s-84.9-32.3-118.1 43.2c-57.9 162.6 200 292.9 216.7 300.2 42.3 18.4 84.2 37.3 94.6 56.2-7.7-28-27-35.2-38.9-42.5-22.5-9.8-112.3-54.9-175.7-122.2-34-36-54.4-60.1-71.5-101.8-13-37.8-18.7-133.1 92.9-133.1z"/><path d="m425.3 330s197.3 67.5 241 243.6c20.8 134.6 202.5 227.3 228.5 255.8-152.2-84.9-229.5-139-253.7-238.1-22.6-107.9-95.3-194.3-215.8-261.3z"/><path d="m844 972.6s-156-183.9-189-202.7c20 25.9 59.8 65.8 99.5 125.1 40 56.1 56.8 99.8 89.5 77.6z"/><path d="m1023.6 1022.8s-224.9-216.9-269.9-236.9c29.1 30.8 85.6 77.1 144.4 148.5 58.9 67.1 86.3 121.3 125.5 88.4z"/><path d="m357.1 815.5s-35.2 69.2-57.6 91.2c-32 22.6-87.4 18.2-87.4 18.2s-11.5-10.6-25.9 6.7-47.5-.2-49.9 52.8c2.9-21.1 65.1-61 82.3-45.6 2.4 6 1.7 9.4-4.3 11.5-8.2 1.9-20.9 3.8-23.8 13-9 11.5-22.9-6.6-26.4 43.4 9.2-20.6 31.4-37.3 54.2-43.9 36.9-21.1 69.4-34.3 69.4-34.3s19.4-6.5 52.3-52.8c18-25.9 27.6-41.8 31.9-49.7 3.2-7.3-1.1-28.5-14.8-10.5z"/><path d="m319.7 912.7s-14.1 15.4 26.9 25.9c9.3 3.7-1.6 33.2 11 24.2 29.2-7.8 34.8 31 34.8 31s15.6-28-13.7-43.9c-10.2-2.9-16 6.7-22.1-13.4-3.6-12.4-15.1-7-24.5-11.5-9.3-4.5-12.4-12.3-12.4-12.3z"/></g></g></svg>